<?xml version="1.0" encoding="utf-8"?>
<svg width="512px" height="512px" viewBox="0 0 512 512" version="1.1" xmlns:xlink="http://www.w3.org/1999/xlink" xmlns="http://www.w3.org/2000/svg">
  <defs>
    <radialGradient gradientUnits="objectBoundingBox" cx="50%" cy="50%" fx="50%" fy="50%" r="74.98479%" gradientTransform="translate(0.5,0.5),rotate(90),scale(1,0.84836984),translate(-0.5,-0.5)" id="gradient_1">
      <stop offset="0%" stop-color="#005CD4" />
      <stop offset="0%" stop-color="#005CD4" />
      <stop offset="45.339573%" stop-color="#005CD4" />
      <stop offset="100%" stop-color="#0000A4" />
    </radialGradient>
    <linearGradient gradientUnits="objectBoundingBox" x1="0.5" y1="0" x2="0.5" y2="1" id="gradient_2">
      <stop offset="0%" stop-color="#0000A4" />
      <stop offset="100%" stop-color="#005CD4" />
    </linearGradient>
    <path d="M0 0L0 512L512 512L512 0L0 0Z" id="path_1" />
    <clipPath id="clip_1">
      <use xlink:href="#path_1" clip-rule="evenodd" fill-rule="evenodd" />
    </clipPath>
  </defs>
  <g id="Crabston Logo - normal">
    <path d="M0 0L0 512L512 512L512 0L0 0Z" id="Crabston-Logo---normal" fill="none" stroke="none" transform="matrix(-1 0 0 1 512 0)" />
    <path d="M459.536 213.196C466.522 198.917 469.028 185.559 468.105 173.392C467.045 159.413 461.461 147.03 452.958 136.639C452.347 135.895 451.249 135.785 450.503 136.393C449.991 136.813 449.76 137.486 449.906 138.132C452.018 151.366 453.356 164.132 452.186 175.825C451.071 187 447.645 197.232 440.376 206.014L439.642 205.723C438.026 205.083 437.163 204.745 436.048 205.077L435.94 205.113C434.785 205.501 434.203 206.402 433.014 208.239L432.32 209.314C427.639 216.458 424.177 224.227 422.538 232.902C421.027 240.897 421.061 249.662 423.104 259.412L418.777 258.58C417.855 258.405 416.96 258.989 416.75 259.904C413.798 269.589 409.298 277.452 403.326 283.566C397.346 289.688 389.86 294.082 380.946 296.828C380.245 297.046 379.754 297.678 379.718 298.411L378.993 313.638C378.948 314.599 379.69 315.415 380.652 315.46L380.996 315.443C393.464 314.28 405.239 311.147 416.196 305.733C427.187 300.304 437.357 292.58 446.58 282.245C447.155 281.601 447.172 280.633 446.62 279.97L442.732 275.001C443.696 263.962 445.656 254.506 448.405 246.346C451.201 238.053 454.829 231.063 459.078 225.073L459.148 224.967C460.219 223.462 461.159 222.379 461.849 221.579L461.854 221.573C463.042 220.198 463.707 219.428 463.673 218.181C463.633 216.678 462.606 215.808 460.302 213.852L459.536 213.196ZM376.009 340.206L381.184 327.272C381.523 326.429 382.451 325.988 383.319 326.257C390.106 328.367 396.97 328.078 403.894 325.719C410.941 323.319 418.081 318.773 425.288 312.435C425.762 312.019 426.423 311.891 427.018 312.099C427.612 312.306 428.049 312.819 428.161 313.439L429.678 321.934C437.022 319.497 443.625 315.67 448.967 310.624C454.467 305.428 458.644 298.922 460.937 291.286C461.172 290.499 461.923 289.982 462.742 290.045L469.524 290.343C478.269 283.523 486.261 276.036 492.703 267.213C499.24 258.265 504.212 247.909 506.801 235.429C506.971 234.617 507.689 234.038 508.518 234.042C509.347 234.047 510.058 234.636 510.218 235.449C513.519 252.18 512.124 266.639 506.921 279.246C501.95 291.287 493.52 301.596 482.406 310.542L485.868 314.004C486.548 314.684 486.548 315.792 485.868 316.473L485.8 316.537C478.636 323.932 470.276 329.603 460.762 333.579C451.661 337.384 441.494 339.643 430.3 340.384L429.676 348.199C429.609 349.052 428.932 349.732 428.079 349.803C418.519 350.608 409.484 350.378 400.965 349.165C392.425 347.948 384.408 345.739 376.902 342.587C376.013 342.213 375.595 341.189 375.967 340.3L376.009 340.206ZM365.045 365.301L370.752 354.047C371.186 353.188 372.234 352.843 373.094 353.276L373.396 353.468C379.451 358.087 386.535 361.211 394.404 363.181C402.368 365.172 411.139 365.985 420.464 365.963C421.425 365.963 422.206 366.744 422.206 367.704L422.211 373.319C430.583 374.494 437.607 377.502 442.754 383.037C448.089 388.775 451.335 397.168 451.882 408.97C458.282 416.095 461.475 427.963 461.037 440.647C460.615 452.872 456.829 465.93 449.304 476.26C448.851 476.877 448.048 477.127 447.325 476.873C446.602 476.62 446.13 475.924 446.162 475.16C446.669 463.967 446.864 453.38 446.15 443.891C445.473 434.933 443.984 426.982 441.183 420.488L436.029 419.81C435.241 419.707 434.623 419.084 434.527 418.295C433.51 412.011 431.381 406.326 428.161 401.245C425.232 396.623 421.397 392.492 416.672 388.851C416.1 389.536 415.385 390.124 414.544 390.611C412.205 391.973 408.831 392.557 404.9 392.339C401.138 392.133 396.796 391.192 392.323 389.514C382.377 385.776 371.672 378.324 365.075 366.992C364.775 366.471 364.763 365.832 365.045 365.301ZM43.8947 173.392C42.9717 185.559 45.4777 198.917 52.4637 213.196L51.6977 213.852C49.3937 215.808 48.3667 216.678 48.3267 218.181C48.2927 219.428 48.9574 220.198 50.1444 221.572L50.1507 221.579C50.8407 222.379 51.7807 223.462 52.8517 224.967L52.9217 225.073C57.1707 231.063 60.7987 238.053 63.5947 246.346C66.3437 254.506 68.3037 263.962 69.2677 275.001L65.3798 279.97C64.8275 280.633 64.8445 281.601 65.4197 282.245C74.6427 292.58 84.8127 300.304 95.8037 305.733C106.761 311.147 118.536 314.28 131.004 315.443L131.348 315.46C132.309 315.415 133.051 314.599 133.007 313.638L132.282 298.411C132.246 297.699 131.774 297.05 131.054 296.828C122.14 294.082 114.654 289.688 108.674 283.566C102.702 277.452 98.2016 269.589 95.2496 259.904C95.0394 258.989 94.1441 258.405 93.2226 258.581L88.8957 259.412C90.9386 249.662 90.9727 240.897 89.4617 232.902C87.8227 224.227 84.3607 216.458 79.6797 209.314L78.9856 208.239C77.7967 206.402 77.2147 205.501 76.0597 205.113L75.9517 205.077C74.8367 204.745 73.9727 205.083 72.3577 205.723L71.6237 206.014C64.3547 197.232 60.9287 187 59.8137 175.825C58.6437 164.132 59.9817 151.366 62.0937 138.132C62.2337 137.506 62.0247 136.826 61.4967 136.393C60.7502 135.785 59.6526 135.895 59.0417 136.639C50.5387 147.03 44.9547 159.413 43.8947 173.392ZM130.816 327.272L136.033 340.3C136.405 341.189 135.987 342.213 135.098 342.587C127.592 345.739 119.575 347.947 111.035 349.165C102.516 350.378 93.4806 350.608 83.9207 349.803C83.0672 349.732 82.3909 349.053 82.3237 348.199L81.6997 340.385C70.5046 339.643 60.3387 337.384 51.2367 333.579C41.7227 329.603 33.3637 323.932 26.1997 316.537L26.1317 316.473C25.4505 315.791 25.4505 314.686 26.1317 314.004L29.5937 310.542C18.4787 301.596 10.0497 291.287 5.07868 279.246C-0.124312 266.639 -1.51931 252.18 1.77869 235.449C1.93921 234.635 2.65078 234.046 3.48052 234.041C4.31024 234.037 5.02865 234.616 5.19869 235.429C7.78769 247.909 12.7597 258.265 19.2957 267.213C25.7387 276.036 33.7297 283.523 42.4757 290.343L49.2578 290.045C50.0764 289.982 50.8279 290.499 51.0627 291.286C53.3557 298.922 57.5327 305.428 63.0317 310.624C68.3747 315.67 74.9777 319.497 82.3216 321.934L83.8387 313.439C83.9501 312.819 84.3868 312.307 84.9816 312.098C85.5765 311.891 86.2372 312.019 86.7106 312.435C93.9186 318.772 101.059 323.319 108.106 325.719C115.03 328.078 121.894 328.368 128.681 326.255C129.548 325.988 130.476 326.43 130.816 327.272ZM141.248 354.047L146.955 365.301C147.226 365.813 147.236 366.45 146.924 366.992C140.328 378.324 129.623 385.777 119.677 389.514C115.204 391.193 110.862 392.133 107.099 392.34C103.169 392.556 99.7946 391.973 97.4547 390.612C96.6147 390.124 95.8996 389.536 95.3277 388.851C90.6027 392.493 86.7667 396.624 83.8387 401.245C80.6187 406.326 78.4897 412.011 77.4727 418.295C77.3762 419.084 76.7577 419.707 75.9697 419.81L70.8167 420.488C68.0147 426.982 66.5267 434.933 65.8497 443.891C65.1357 453.381 65.3297 463.967 65.8417 475.159C65.8758 475.928 65.4028 476.626 64.6777 476.88C63.9526 477.133 63.1471 476.882 62.6957 476.26C55.1707 465.93 51.3847 452.872 50.9627 440.647C50.5247 427.963 53.7177 416.096 60.1177 408.97C60.6647 397.168 63.9107 388.775 69.2457 383.037C74.3927 377.502 81.4167 374.494 89.7887 373.319L89.7887 367.704C89.7937 366.742 90.5738 365.965 91.5356 365.963C100.861 365.985 109.631 365.172 117.596 363.181C125.464 361.211 132.549 358.087 138.604 353.468L138.906 353.276C139.766 352.843 140.814 353.188 141.248 354.047Z" id="legs" fill="url(#gradient_1)" fill-rule="evenodd" stroke="none" clip-path="url(#clip_1)" transform="matrix(-1 0 0 1 512 0)" />
    <path d="M342.33 37C357.155 67.995 365.004 94.733 363.941 116.021C338.359 102.854 320.23 82.222 310.082 58.657C295.537 98.051 327.407 137.622 359.536 149.02C355.832 169.219 355.33 185.182 364.311 195.493L316.77 227.722L346.805 256.052C369.084 242.91 381.097 222.509 391.564 200.508C417.308 186.025 413.667 130.817 404.994 106.683C394.206 76.66 371.081 50.993 342.33 37L342.33 37ZM169.126 37C154.301 67.995 146.452 94.733 147.515 116.021C173.097 102.854 191.226 82.222 201.374 58.657C215.919 98.051 184.049 137.622 151.92 149.02C155.624 169.219 156.126 185.182 147.145 195.493L190.429 225.015L164.651 256.052C142.372 242.91 130.358 222.509 119.892 200.508C94.1479 186.025 97.7889 130.817 106.462 106.683C117.25 76.66 140.375 50.993 169.126 37L169.126 37Z" id="claws" fill="url(#gradient_2)" fill-rule="evenodd" stroke="none" clip-path="url(#clip_1)" transform="matrix(-1 0 0 1 512 0)" />
    <path d="M291.033 213.868L275.589 211.68C263.826 208.422 252.215 208.154 240.74 210.768L220.333 212.619C131.752 212.537 74.5531 291.504 143.731 357.845C153.132 366.861 164.706 375.89 179.075 383.979C233.111 414.398 284.44 415.057 358.816 363.173C382.541 346.622 392.504 321.858 397.914 291.638C396.245 274.376 391.658 261.053 384.864 250.712C376.055 237.302 363.533 228.903 348.84 223.434C329.57 218.13 310.303 214.73 291.033 213.868L291.033 213.868Z" id="body" fill="#005CD4" fill-rule="evenodd" stroke="none" clip-path="url(#clip_1)" transform="matrix(-1 0 0 1 512 0)" />
    <path d="M293.816 146C281.196 146 270.963 156.23 270.963 168.853C270.963 181.019 280.47 190.963 292.461 191.665C292.902 211.759 290.105 230.465 281.121 246.847L306.543 246.847C313.27 224.991 313.099 204.854 307.865 186.879C313.225 182.694 316.67 176.178 316.67 168.853C316.67 156.23 306.439 146 293.816 146L293.816 146ZM217.854 146C230.474 146 240.707 156.23 240.707 168.853C240.707 181.019 231.2 190.963 219.212 191.665C218.771 211.759 221.565 230.465 230.549 246.85L205.124 246.85C198.403 224.993 198.573 204.857 203.805 186.879C198.445 182.697 195 176.178 195 168.853C195 156.23 205.231 146 217.854 146L217.854 146Z" id="outer-eyes" fill="#005CD4" fill-rule="evenodd" stroke="none" clip-path="url(#clip_1)" transform="matrix(-1 0 0 1 512 0)" />
    <g id="inner-eyes" clip-path="url(#clip_1)" transform="matrix(-1 0 0 1 512 0), translate(205 155)">
      <path d="M88.962 0C81.784 0 75.963 5.821 75.963 13.004C75.963 20.181 81.784 26.002 88.962 26.002C96.144 26.002 101.96 20.181 101.96 13.004C101.96 5.821 96.144 0 88.962 0L88.962 0ZM12.998 0C20.176 0 25.997 5.821 25.997 13.004C25.997 20.181 20.176 26.002 12.998 26.002C5.81599 26.002 0 20.181 0 13.004C0 5.821 5.81599 0 12.998 0L12.998 0Z" id="eyeballs" fill="#005CD4" fill-rule="evenodd" stroke="none" />
      <path d="M88.961 4.77001C86.506 4.74086 84.225 6.03404 82.9894 8.15555C81.7537 10.2771 81.7543 12.8991 82.9909 15.0201C84.2274 17.1411 86.509 18.4332 88.964 18.403C92.6965 18.3571 95.6978 15.3178 95.697 11.585C95.6962 7.85226 92.6935 4.81432 88.961 4.77001L88.961 4.77001ZM12.999 8.13201C9.26645 8.17716 6.26439 11.2158 6.2644 14.9485C6.26442 18.6813 9.26649 21.7199 12.999 21.765C14.8065 21.7653 16.5401 21.0474 17.8182 19.7692C19.0963 18.4911 19.8143 16.7576 19.814 14.95C19.8146 13.1414 19.0968 11.4073 17.8185 10.1287C16.5403 8.85011 14.8063 8.13185 12.9983 8.13202L12.999 8.13201Z" id="iris" fill="#005CD4" fill-rule="evenodd" stroke="none" />
    </g>
  </g>
</svg>